<svg width="21" height="27" viewBox="0 0 21 27" fill="none" xmlns="http://www.w3.org/2000/svg">
<path fill-rule="evenodd" clip-rule="evenodd" d="M18.6303 10.6347C18.6303 13.4048 16.759 16.8839 14.4093 19.8984C13.2763 21.352 12.1165 22.5899 11.1942 23.4483C10.933 23.6914 10.6996 23.8959 10.4988 24.0617C10.2979 23.8959 10.0645 23.6914 9.80336 23.4483C8.88104 22.5899 7.72124 21.352 6.58824 19.8984C4.23857 16.8839 2.36719 13.4048 2.36719 10.6347C2.36719 6.21938 5.98863 2.60547 10.4988 2.60547C15.0089 2.60547 18.6303 6.21938 18.6303 10.6347ZM10.4988 26.3949C11.6245 26.3949 20.6303 17.6031 20.6303 10.6347C20.6303 5.09571 16.0943 0.605469 10.4988 0.605469C4.90325 0.605469 0.367188 5.09571 0.367188 10.6347C0.367188 17.6031 9.37304 26.3949 10.4988 26.3949ZM12.183 10.737C12.183 11.6672 11.4289 12.4213 10.4988 12.4213C9.5686 12.4213 8.81456 11.6672 8.81456 10.737C8.81456 9.80688 9.5686 9.05284 10.4988 9.05284C11.4289 9.05284 12.183 9.80688 12.183 10.737ZM10.4988 14.4213C12.5335 14.4213 14.183 12.7718 14.183 10.737C14.183 8.70231 12.5335 7.05284 10.4988 7.05284C8.46403 7.05284 6.81456 8.70231 6.81456 10.737C6.81456 12.7718 8.46403 14.4213 10.4988 14.4213Z" fill="black"/>
</svg>
