<svg width="35" height="35" viewBox="0 0 35 35" fill="none" xmlns="http://www.w3.org/2000/svg">
    <path fill-rule="evenodd" clip-rule="evenodd" d="M17.5013 2.9165C13.5407 2.9165 13.0441 2.93329 11.4886 3.00426C9.93639 3.07506 8.87627 3.32161 7.94866 3.68214C6.98968 4.05477 6.1764 4.55342 5.36562 5.36415C4.55489 6.17494 4.05623 6.98822 3.6836 7.9472C3.32307 8.87481 3.07653 9.93492 3.00573 11.4871C2.93476 13.0426 2.91797 13.5392 2.91797 17.4999C2.91797 21.4604 2.93476 21.9571 3.00573 23.5125C3.07653 25.0648 3.32307 26.1249 3.6836 27.0525C4.05623 28.0115 4.55489 28.8247 5.36562 29.6355C6.1764 30.4463 6.98968 30.9449 7.94866 31.3176C8.87627 31.6781 9.93639 31.9246 11.4886 31.9954C13.0441 32.0664 13.5407 32.0832 17.5013 32.0832C21.4619 32.0832 21.9585 32.0664 23.514 31.9954C25.0662 31.9246 26.1263 31.6781 27.0539 31.3176C28.0129 30.9449 28.8262 30.4463 29.637 29.6355C30.4477 28.8247 30.9464 28.0115 31.3191 27.0525C31.6795 26.1249 31.9261 25.0648 31.9969 23.5125C32.0678 21.9571 32.0846 21.4604 32.0846 17.4999C32.0846 13.5392 32.0678 13.0426 31.9969 11.4871C31.9261 9.93492 31.6795 8.87481 31.3191 7.9472C30.9464 6.98822 30.4477 6.17494 29.637 5.36415C28.8262 4.55342 28.0129 4.05477 27.0539 3.68214C26.1263 3.32161 25.0662 3.07506 23.514 3.00426C21.9585 2.93329 21.4619 2.9165 17.5013 2.9165ZM17.5013 5.54413C21.3952 5.54413 21.8565 5.559 23.3942 5.62917C24.8161 5.694 25.5883 5.93158 26.1021 6.13129C26.7828 6.39584 27.2686 6.71186 27.7789 7.2222C28.2893 7.73249 28.6053 8.21829 28.8698 8.899C29.0696 9.41288 29.3071 10.1851 29.372 11.6069C29.4421 13.1447 29.457 13.6059 29.457 17.4999C29.457 21.3937 29.4421 21.855 29.372 23.3928C29.3071 24.8146 29.0696 25.5868 28.8698 26.1007C28.6053 26.7814 28.2893 27.2672 27.7789 27.7775C27.2686 28.2878 26.7828 28.6038 26.1021 28.8684C25.5883 29.0681 24.8161 29.3057 23.3942 29.3705C21.8567 29.4407 21.3955 29.4555 17.5013 29.4555C13.6071 29.4555 13.146 29.4407 11.6084 29.3705C10.1865 29.3057 9.41435 29.0681 8.90047 28.8684C8.21976 28.6038 7.73395 28.2878 7.22367 27.7775C6.71338 27.2672 6.39731 26.7814 6.13276 26.1007C5.93304 25.5868 5.69547 24.8146 5.63063 23.3928C5.56047 21.855 5.54559 21.3937 5.54559 17.4999C5.54559 13.6059 5.56047 13.1447 5.63063 11.6069C5.69547 10.1851 5.93304 9.41288 6.13276 8.899C6.39731 8.21829 6.71332 7.73249 7.22367 7.2222C7.73395 6.71186 8.21976 6.39584 8.90047 6.13129C9.41435 5.93158 10.1865 5.694 11.6084 5.62917C13.1461 5.559 13.6074 5.54413 17.5013 5.54413ZM17.5002 22.3608C14.8154 22.3608 12.639 20.1844 12.639 17.4997C12.639 14.815 14.8154 12.6386 17.5002 12.6386C20.1849 12.6386 22.3612 14.815 22.3612 17.4997C22.3612 20.1844 20.1849 22.3608 17.5002 22.3608ZM17.5002 10.011C13.3642 10.011 10.0114 13.3638 10.0114 17.4997C10.0114 21.6356 13.3642 24.9884 17.5002 24.9884C21.6361 24.9884 24.9889 21.6356 24.9889 17.4997C24.9889 13.3638 21.6361 10.011 17.5002 10.011ZM25.2869 11.4651C26.2534 11.4651 27.0369 10.6816 27.0369 9.71514C27.0369 8.74863 26.2534 7.96511 25.2869 7.96511C24.3205 7.96511 23.5369 8.74863 23.5369 9.71514C23.5369 10.6816 24.3205 11.4651 25.2869 11.4651Z" fill="#0A0B09"/>
    <path fill-rule="evenodd" clip-rule="evenodd" d="M17.5013 2.9165C13.5407 2.9165 13.0441 2.93329 11.4886 3.00426C9.93639 3.07506 8.87627 3.32161 7.94866 3.68214C6.98968 4.05477 6.1764 4.55342 5.36562 5.36415C4.55489 6.17494 4.05623 6.98822 3.6836 7.9472C3.32307 8.87481 3.07653 9.93492 3.00573 11.4871C2.93476 13.0426 2.91797 13.5392 2.91797 17.4999C2.91797 21.4604 2.93476 21.9571 3.00573 23.5125C3.07653 25.0648 3.32307 26.1249 3.6836 27.0525C4.05623 28.0115 4.55489 28.8247 5.36562 29.6355C6.1764 30.4463 6.98968 30.9449 7.94866 31.3176C8.87627 31.6781 9.93639 31.9246 11.4886 31.9954C13.0441 32.0664 13.5407 32.0832 17.5013 32.0832C21.4619 32.0832 21.9585 32.0664 23.514 31.9954C25.0662 31.9246 26.1263 31.6781 27.0539 31.3176C28.0129 30.9449 28.8262 30.4463 29.637 29.6355C30.4477 28.8247 30.9464 28.0115 31.3191 27.0525C31.6795 26.1249 31.9261 25.0648 31.9969 23.5125C32.0678 21.9571 32.0846 21.4604 32.0846 17.4999C32.0846 13.5392 32.0678 13.0426 31.9969 11.4871C31.9261 9.93492 31.6795 8.87481 31.3191 7.9472C30.9464 6.98822 30.4477 6.17494 29.637 5.36415C28.8262 4.55342 28.0129 4.05477 27.0539 3.68214C26.1263 3.32161 25.0662 3.07506 23.514 3.00426C21.9585 2.93329 21.4619 2.9165 17.5013 2.9165ZM17.5013 5.54413C21.3952 5.54413 21.8565 5.559 23.3942 5.62917C24.8161 5.694 25.5883 5.93158 26.1021 6.13129C26.7828 6.39584 27.2686 6.71186 27.7789 7.2222C28.2893 7.73249 28.6053 8.21829 28.8698 8.899C29.0696 9.41288 29.3071 10.1851 29.372 11.6069C29.4421 13.1447 29.457 13.6059 29.457 17.4999C29.457 21.3937 29.4421 21.855 29.372 23.3928C29.3071 24.8146 29.0696 25.5868 28.8698 26.1007C28.6053 26.7814 28.2893 27.2672 27.7789 27.7775C27.2686 28.2878 26.7828 28.6038 26.1021 28.8684C25.5883 29.0681 24.8161 29.3057 23.3942 29.3705C21.8567 29.4407 21.3955 29.4555 17.5013 29.4555C13.6071 29.4555 13.146 29.4407 11.6084 29.3705C10.1865 29.3057 9.41435 29.0681 8.90047 28.8684C8.21976 28.6038 7.73395 28.2878 7.22367 27.7775C6.71338 27.2672 6.39731 26.7814 6.13276 26.1007C5.93304 25.5868 5.69547 24.8146 5.63063 23.3928C5.56047 21.855 5.54559 21.3937 5.54559 17.4999C5.54559 13.6059 5.56047 13.1447 5.63063 11.6069C5.69547 10.1851 5.93304 9.41288 6.13276 8.899C6.39731 8.21829 6.71332 7.73249 7.22367 7.2222C7.73395 6.71186 8.21976 6.39584 8.90047 6.13129C9.41435 5.93158 10.1865 5.694 11.6084 5.62917C13.1461 5.559 13.6074 5.54413 17.5013 5.54413ZM17.5002 22.3608C14.8154 22.3608 12.639 20.1844 12.639 17.4997C12.639 14.815 14.8154 12.6386 17.5002 12.6386C20.1849 12.6386 22.3612 14.815 22.3612 17.4997C22.3612 20.1844 20.1849 22.3608 17.5002 22.3608ZM17.5002 10.011C13.3642 10.011 10.0114 13.3638 10.0114 17.4997C10.0114 21.6356 13.3642 24.9884 17.5002 24.9884C21.6361 24.9884 24.9889 21.6356 24.9889 17.4997C24.9889 13.3638 21.6361 10.011 17.5002 10.011ZM25.2869 11.4651C26.2534 11.4651 27.0369 10.6816 27.0369 9.71514C27.0369 8.74863 26.2534 7.96511 25.2869 7.96511C24.3205 7.96511 23.5369 8.74863 23.5369 9.71514C23.5369 10.6816 24.3205 11.4651 25.2869 11.4651Z" fill="url(#paint0_linear)"/>
    <defs>
    <linearGradient id="paint0_linear" x1="4.3763" y1="32.0832" x2="32.0846" y2="2.91651" gradientUnits="userSpaceOnUse">
    <stop stop-color="#FEDF88"/>
    <stop offset="0.25" stop-color="#FA7C2A"/>
    <stop offset="0.526042" stop-color="#E02C72"/>
    <stop offset="0.791667" stop-color="#CF2F94"/>
    <stop offset="1" stop-color="#7D46CA"/>
    </linearGradient>
    </defs>
</svg>
