<svg width="35" height="35" viewBox="0 0 35 35" fill="none" xmlns="http://www.w3.org/2000/svg">
<path fill-rule="evenodd" clip-rule="evenodd" d="M4.375 7.375C4.375 5.71815 5.71815 4.375 7.375 4.375H27.625C29.2819 4.375 30.625 5.71815 30.625 7.375V27.625C30.625 29.2819 29.2819 30.625 27.625 30.625H7.375C5.71815 30.625 4.375 29.2819 4.375 27.625V7.375ZM14.6041 14.2157H18.336V15.9285H18.39C18.9091 14.9434 20.1793 13.9051 22.073 13.9051C26.0156 13.9051 26.744 16.4987 26.744 19.8726V26.7428H22.851V20.6506C22.851 19.1981 22.8262 17.3293 20.8283 17.3293C18.802 17.3293 18.4928 18.9123 18.4928 20.5471V26.7428H14.6041V14.2157ZM12.4695 10.2463C12.4695 9.00016 11.4589 7.9888 10.2135 7.9888C8.96297 7.9888 7.95453 9.00016 7.95453 10.2463C7.95453 11.4932 8.96297 12.5045 10.2135 12.5045C11.4589 12.5045 12.4695 11.4932 12.4695 10.2463ZM12.1602 26.743H8.26284V14.2159H12.1602V26.743Z" fill="#127BB4"/>
</svg>
