<svg width="35" height="35" viewBox="0 0 35 35" fill="none" xmlns="http://www.w3.org/2000/svg">
<path fill-rule="evenodd" clip-rule="evenodd" d="M32.0846 8.6603C31.0116 9.13969 29.8582 9.46379 28.6479 9.60953C29.8831 8.86334 30.8321 7.68199 31.2789 6.27424C30.1226 6.96519 28.842 7.46691 27.4789 7.73709C26.3875 6.56558 24.8323 5.8335 23.1112 5.8335C19.8066 5.8335 17.1272 8.53249 17.1272 11.8617C17.1272 12.3341 17.1802 12.7942 17.2823 13.2356C12.3091 12.984 7.89978 10.5842 4.94855 6.93698C4.43347 7.82729 4.1383 8.86275 4.1383 9.96756C4.1383 12.0591 5.19472 13.9042 6.80034 14.9852C5.81947 14.9539 4.89678 14.6827 4.09003 14.2312C4.08945 14.2565 4.08945 14.2816 4.08945 14.307C4.08945 17.2279 6.15211 19.6642 8.88955 20.2182C8.38745 20.3558 7.8588 20.4296 7.31309 20.4296C6.92751 20.4296 6.55257 20.3917 6.18726 20.3215C6.94866 22.7163 9.15861 24.4593 11.7771 24.5078C9.72911 26.1248 7.14903 27.0884 4.34539 27.0884C3.86239 27.0884 3.38609 27.0599 2.91797 27.0041C5.56616 28.7146 8.71149 29.7128 12.0907 29.7128C23.0972 29.7128 29.1162 20.5268 29.1162 12.5608C29.1162 12.2994 29.1104 12.0394 29.0987 11.7808C30.268 10.9309 31.2824 9.86913 32.0846 8.6603Z" fill="#999999"/>
<path fill-rule="evenodd" clip-rule="evenodd" d="M32.0846 8.6603C31.0116 9.13969 29.8582 9.46379 28.6479 9.60953C29.8831 8.86334 30.8321 7.68199 31.2789 6.27424C30.1226 6.96519 28.842 7.46691 27.4789 7.73709C26.3875 6.56558 24.8323 5.8335 23.1112 5.8335C19.8066 5.8335 17.1272 8.53249 17.1272 11.8617C17.1272 12.3341 17.1802 12.7942 17.2823 13.2356C12.3091 12.984 7.89978 10.5842 4.94855 6.93698C4.43347 7.82729 4.1383 8.86275 4.1383 9.96756C4.1383 12.0591 5.19472 13.9042 6.80034 14.9852C5.81947 14.9539 4.89678 14.6827 4.09003 14.2312C4.08945 14.2565 4.08945 14.2816 4.08945 14.307C4.08945 17.2279 6.15211 19.6642 8.88955 20.2182C8.38745 20.3558 7.8588 20.4296 7.31309 20.4296C6.92751 20.4296 6.55257 20.3917 6.18726 20.3215C6.94866 22.7163 9.15861 24.4593 11.7771 24.5078C9.72911 26.1248 7.14903 27.0884 4.34539 27.0884C3.86239 27.0884 3.38609 27.0599 2.91797 27.0041C5.56616 28.7146 8.71149 29.7128 12.0907 29.7128C23.0972 29.7128 29.1162 20.5268 29.1162 12.5608C29.1162 12.2994 29.1104 12.0394 29.0987 11.7808C30.268 10.9309 31.2824 9.86913 32.0846 8.6603Z" fill="#4CD4FD"/>
</svg>
