<svg width="25" height="19" viewBox="0 0 25 19" fill="none" xmlns="http://www.w3.org/2000/svg">
<path d="M12.75 5.41667C12.75 3.64772 12.3568 2.58864 11.7813 1.96912C11.2202 1.36506 10.3177 1 8.875 1C7.43233 1 6.52979 1.36506 5.96869 1.96912C5.39323 2.58864 5 3.64772 5 5.41667C5 6.4374 5.27968 7.23515 5.81589 7.77816C6.34781 8.31682 7.27568 8.75 8.875 8.75C10.4743 8.75 11.4022 8.31682 11.9341 7.77816C12.4703 7.23515 12.75 6.4374 12.75 5.41667Z" stroke="#75FBC6" stroke-width="2"/>
<path d="M9.76104 12C9.96108 12 10.1393 12.0033 10.2976 12.0094C10.1626 12.1227 10.0161 12.2428 9.85846 12.3721C9.8182 12.4051 9.77722 12.4387 9.7355 12.473C9.41364 12.7372 9.05871 13.0315 8.7192 13.342C8.074 13.9321 7.3365 14.7083 7.03547 15.611C6.79084 16.3446 7.04971 16.9932 7.44649 17.4225C5.02021 17.256 3.20368 16.8509 2.02954 16.5058L1.74757 17.4652L2.02954 16.5058C1.81823 16.4437 1.69014 16.308 1.63307 16.1668C1.57751 16.0294 1.57822 15.8628 1.6832 15.6914C2.30314 14.6794 3.1466 13.7743 4.38957 13.1137C5.63927 12.4494 7.35382 12 9.76104 12ZM11.021 11.3083C11.0212 11.3083 11.0199 11.3108 11.0166 11.3161C11.0192 11.311 11.0209 11.3084 11.021 11.3083Z" stroke="#75FBC6" stroke-width="2" stroke-linecap="round"/>
<path d="M19.75 5.41667C19.75 3.64772 19.3568 2.58864 18.7813 1.96912C18.2202 1.36506 17.3177 1 15.875 1C14.4323 1 13.5298 1.36506 12.9687 1.96912C12.3932 2.58864 12 3.64772 12 5.41667C12 6.4374 12.2797 7.23515 12.8159 7.77816C13.3478 8.31682 14.2757 8.75 15.875 8.75C17.4743 8.75 18.4022 8.31682 18.9341 7.77816C19.4703 7.23515 19.75 6.4374 19.75 5.41667Z" stroke="#75FBC6" stroke-width="2"/>
<path d="M14.761 12C17.1653 12 18.8768 12.4514 20.1232 13.1164C21.3632 13.7781 22.2033 14.6833 22.8195 15.6917C22.9241 15.8629 22.9247 16.0292 22.8691 16.1665C22.8119 16.3075 22.6839 16.4431 22.4728 16.5051C20.9529 16.952 18.355 17.5 14.75 17.5C11.1469 17.5 8.54975 16.9526 7.02954 16.5058C6.81823 16.4437 6.69014 16.308 6.63307 16.1668C6.57751 16.0294 6.57822 15.8628 6.6832 15.6914C7.30314 14.6794 8.1466 13.7743 9.38957 13.1137C10.6393 12.4494 12.3538 12 14.761 12Z" stroke="#75FBC6" stroke-width="2" stroke-linecap="round"/>
</svg>
