<svg width="98" height="26" viewBox="0 0 98 26" fill="none" xmlns="http://www.w3.org/2000/svg">
<path d="M0 0V24.2197H4.98641V7.22521H5.05425L10.9905 24.2197H15.0949L21.0311 7.0556H21.099V24.2197H26.0854V0H18.5888L13.2293 16.6553H13.1614L7.49658 0H0Z" fill="white"/>
<path d="M40.5435 13.5685H32.7077C32.7303 13.2293 32.7981 12.8448 32.9112 12.4151C33.0469 11.9855 33.2617 11.5784 33.5557 11.194C33.8723 10.8095 34.2794 10.4929 34.7769 10.2442C35.297 9.97282 35.9415 9.83714 36.7104 9.83714C37.8863 9.83714 38.757 10.1537 39.3223 10.7869C39.9103 11.4201 40.3173 12.3473 40.5435 13.5685ZM32.7077 16.6214H45.3603C45.4507 15.2645 45.3377 13.9642 45.0211 12.7204C44.7045 11.4767 44.1843 10.3686 43.4607 9.39616C42.7597 8.42376 41.8551 7.65488 40.747 7.08952C39.6389 6.50156 38.3386 6.20757 36.8461 6.20757C35.5118 6.20757 34.2907 6.44502 33.1826 6.91992C32.0971 7.39481 31.1586 8.05062 30.3671 8.88735C29.5756 9.70145 28.965 10.6739 28.5354 11.8046C28.1057 12.9353 27.8909 14.1564 27.8909 15.4681C27.8909 16.8249 28.0944 18.0687 28.5015 19.1994C28.9311 20.3301 29.5304 21.3025 30.2993 22.1166C31.0682 22.9307 32.0066 23.5639 33.1147 24.0162C34.2228 24.4459 35.4666 24.6607 36.8461 24.6607C38.8361 24.6607 40.5322 24.2084 41.9342 23.3038C43.3363 22.3993 44.3766 20.8954 45.055 18.7923H40.8148C40.6565 19.3351 40.2269 19.8552 39.5258 20.3527C38.8248 20.8276 37.9881 21.065 37.0157 21.065C35.6588 21.065 34.6186 20.7145 33.8949 20.0135C33.1713 19.3125 32.7755 18.1817 32.7077 16.6214Z" fill="white"/>
<path d="M50.422 18.521H45.8426C45.8878 19.6969 46.1479 20.6806 46.6228 21.4721C47.1203 22.241 47.7422 22.8629 48.4884 23.3378C49.2573 23.8127 50.128 24.1519 51.1004 24.3554C52.0728 24.5589 53.0678 24.6607 54.0854 24.6607C55.0805 24.6607 56.0529 24.5589 57.0027 24.3554C57.9751 24.1745 58.8344 23.8466 59.5807 23.3717C60.3269 22.8968 60.9262 22.2749 61.3785 21.506C61.8534 20.7145 62.0908 19.7421 62.0908 18.5888C62.0908 17.7747 61.9325 17.0963 61.6159 16.5535C61.2993 15.9882 60.881 15.5246 60.3609 15.1628C59.8407 14.7783 59.2415 14.473 58.563 14.2469C57.9072 14.0207 57.2288 13.8285 56.5278 13.6702C55.8493 13.5119 55.1822 13.3649 54.5264 13.2293C53.8706 13.0936 53.2826 12.9466 52.7625 12.7883C52.265 12.6074 51.8579 12.3812 51.5414 12.1099C51.2248 11.8385 51.0665 11.488 51.0665 11.0583C51.0665 10.6965 51.1569 10.4138 51.3378 10.2103C51.5187 9.98413 51.7336 9.81452 51.9823 9.70145C52.2537 9.58838 52.5477 9.52054 52.8643 9.49793C53.1809 9.4527 53.4749 9.43008 53.7462 9.43008C54.6056 9.43008 55.3518 9.59969 55.985 9.9389C56.6182 10.2555 56.9687 10.8774 57.0366 11.8046H61.6159C61.5255 10.7191 61.2428 9.82583 60.7679 9.12479C60.3156 8.40114 59.739 7.82448 59.0379 7.39481C58.3369 6.96515 57.5341 6.65986 56.6295 6.47894C55.7476 6.29803 54.8317 6.20757 53.8819 6.20757C52.9321 6.20757 52.0049 6.29803 51.1004 6.47894C50.1958 6.63724 49.3817 6.93122 48.6581 7.36089C47.9344 7.76795 47.3464 8.3333 46.8941 9.05695C46.4645 9.7806 46.2496 10.7078 46.2496 11.8385C46.2496 12.6074 46.4079 13.2632 46.7245 13.8059C47.0411 14.326 47.4595 14.767 47.9796 15.1288C48.4997 15.4681 49.0877 15.7507 49.7435 15.9769C50.4219 16.1804 51.1117 16.3613 51.8127 16.5196C53.5314 16.8814 54.8656 17.2433 55.8154 17.6051C56.7878 17.9669 57.274 18.5096 57.274 19.2333C57.274 19.663 57.1723 20.0248 56.9687 20.3188C56.7652 20.5901 56.5051 20.8163 56.1885 20.9972C55.8946 21.1555 55.5554 21.2799 55.1709 21.3703C54.8091 21.4382 54.4586 21.4721 54.1194 21.4721C53.6445 21.4721 53.1809 21.4156 52.7286 21.3025C52.2989 21.1894 51.9145 21.0198 51.5753 20.7937C51.2361 20.5449 50.9534 20.2396 50.7272 19.8778C50.5237 19.4934 50.422 19.0411 50.422 18.521Z" fill="white"/>
<path d="M69.4893 6.68247V1.42469H64.6725V6.68247H61.7553V9.90498H64.6725V20.2509C64.6725 21.1329 64.8195 21.8452 65.1135 22.388C65.4075 22.9307 65.8033 23.3491 66.3008 23.6431C66.8209 23.937 67.4089 24.1293 68.0647 24.2197C68.7431 24.3328 69.4554 24.3893 70.2017 24.3893C70.6766 24.3893 71.1628 24.378 71.6603 24.3554C72.1578 24.3328 72.6101 24.2876 73.0172 24.2197V20.4884C72.791 20.5336 72.5536 20.5675 72.3048 20.5901C72.0561 20.6128 71.796 20.6241 71.5246 20.6241C70.7105 20.6241 70.1678 20.4884 69.8964 20.217C69.625 19.9456 69.4893 19.4029 69.4893 18.5888V9.90498H73.0172V6.68247H69.4893Z" fill="white"/>
<path d="M78.0566 15.4681C78.0566 14.767 78.1244 14.0773 78.2601 13.3989C78.3958 12.7204 78.6219 12.1212 78.9385 11.601C79.2777 11.0809 79.7187 10.6626 80.2614 10.346C80.8042 10.0067 81.4826 9.83714 82.2967 9.83714C83.1108 9.83714 83.7892 10.0067 84.332 10.346C84.8973 10.6626 85.3383 11.0809 85.6549 11.601C85.9941 12.1212 86.2316 12.7204 86.3672 13.3989C86.5029 14.0773 86.5708 14.767 86.5708 15.4681C86.5708 16.1691 86.5029 16.8588 86.3672 17.5372C86.2316 18.1931 85.9941 18.7923 85.6549 19.3351C85.3383 19.8552 84.8973 20.2736 84.332 20.5901C83.7892 20.9067 83.1108 21.065 82.2967 21.065C81.4826 21.065 80.8042 20.9067 80.2614 20.5901C79.7187 20.2736 79.2777 19.8552 78.9385 19.3351C78.6219 18.7923 78.3958 18.1931 78.2601 17.5372C78.1244 16.8588 78.0566 16.1691 78.0566 15.4681ZM73.2398 15.4681C73.2398 16.8701 73.4546 18.1365 73.8843 19.2672C74.3139 20.3979 74.9245 21.3703 75.716 22.1844C76.5075 22.9759 77.4573 23.5865 78.5654 24.0162C79.6735 24.4459 80.9173 24.6607 82.2967 24.6607C83.6762 24.6607 84.92 24.4459 86.028 24.0162C87.1587 23.5865 88.1198 22.9759 88.9113 22.1844C89.7028 21.3703 90.3134 20.3979 90.7431 19.2672C91.1728 18.1365 91.3876 16.8701 91.3876 15.4681C91.3876 14.066 91.1728 12.7996 90.7431 11.6689C90.3134 10.5156 89.7028 9.54315 88.9113 8.75166C88.1198 7.93755 87.1587 7.31566 86.028 6.886C84.92 6.43371 83.6762 6.20757 82.2967 6.20757C80.9173 6.20757 79.6735 6.43371 78.5654 6.886C77.4573 7.31566 76.5075 7.93755 75.716 8.75166C74.9245 9.54315 74.3139 10.5156 73.8843 11.6689C73.4546 12.7996 73.2398 14.066 73.2398 15.4681Z" fill="white"/>
<rect x="91.6172" y="19.9121" width="5.38431" height="5.38431" fill="#75FBC6"/>
</svg>
