<svg width="24" height="24" viewBox="0 0 24 24" fill="none" xmlns="http://www.w3.org/2000/svg">
    <path fill-rule="evenodd" clip-rule="evenodd" d="M14.8762 7.66667C14.8762 6.02181 14.5075 5.25783 14.1749 4.89969C13.8709 4.57247 13.2846 4.25 12.0012 4.25C10.7179 4.25 10.1316 4.57247 9.8276 4.89969C9.49494 5.25783 9.12623 6.02181 9.12623 7.66667C9.12623 8.51151 9.35561 9.02368 9.65367 9.32552C9.94314 9.61866 10.5801 10 12.0012 10C13.4223 10 14.0593 9.61866 14.3488 9.32552C14.6469 9.02368 14.8762 8.51151 14.8762 7.66667ZM12.0012 2.25C15.2052 2.25 16.8762 3.88058 16.8762 7.66667C16.8762 10.0599 15.5563 12 12.0012 12C8.44615 12 7.12623 10.0599 7.12623 7.66667C7.12623 3.88058 8.79725 2.25 12.0012 2.25ZM12.0123 16.25C14.2914 16.25 15.8331 16.6774 16.9037 17.2487C17.7516 17.7011 18.3806 18.2844 18.8745 18.9525C17.3866 19.3387 15.0801 19.75 12.0012 19.75C8.92434 19.75 6.61878 19.3392 5.13078 18.9533C5.62745 18.2828 6.25917 17.699 7.11014 17.2467C8.18412 16.6758 9.7293 16.25 12.0123 16.25ZM12.0123 14.25C17.071 14.25 19.5375 16.1511 20.924 18.4203C21.4705 19.3147 21.0117 20.4188 20.0061 20.7145C18.4018 21.1863 15.7089 21.75 12.0012 21.75C8.29551 21.75 5.60348 21.1868 3.9988 20.7152C2.99214 20.4194 2.53363 19.3137 3.08172 18.419C4.47657 16.1421 6.94933 14.25 12.0123 14.25Z" fill="#75FBC6"/>
</svg>
