<svg width="35" height="35" viewBox="0 0 35 35" fill="none" xmlns="http://www.w3.org/2000/svg">
    <path fill-rule="evenodd" clip-rule="evenodd" d="M25.6303 14.6347C25.6303 17.4048 23.759 20.8839 21.4093 23.8984C20.2763 25.352 19.1165 26.5899 18.1942 27.4483C17.933 27.6914 17.6996 27.8959 17.4988 28.0617C17.2979 27.8959 17.0645 27.6914 16.8034 27.4483C15.881 26.5899 14.7212 25.352 13.5882 23.8984C11.2386 20.8839 9.36719 17.4048 9.36719 14.6347C9.36719 10.2194 12.9886 6.60547 17.4988 6.60547C22.0089 6.60547 25.6303 10.2194 25.6303 14.6347ZM17.4988 30.3949C18.6245 30.3949 27.6303 21.6031 27.6303 14.6347C27.6303 9.09571 23.0943 4.60547 17.4988 4.60547C11.9032 4.60547 7.36719 9.09571 7.36719 14.6347C7.36719 21.6031 16.373 30.3949 17.4988 30.3949ZM19.183 14.737C19.183 15.6672 18.4289 16.4213 17.4988 16.4213C16.5686 16.4213 15.8146 15.6672 15.8146 14.737C15.8146 13.8069 16.5686 13.0528 17.4988 13.0528C18.4289 13.0528 19.183 13.8069 19.183 14.737ZM17.4988 18.4213C19.5335 18.4213 21.183 16.7718 21.183 14.737C21.183 12.7023 19.5335 11.0528 17.4988 11.0528C15.464 11.0528 13.8146 12.7023 13.8146 14.737C13.8146 16.7718 15.464 18.4213 17.4988 18.4213Z" fill="black"/>
</svg>
