<svg width="35" height="35" viewBox="0 0 35 35" fill="none" xmlns="http://www.w3.org/2000/svg">
    <path fill-rule="evenodd" clip-rule="evenodd" d="M8.55 8.25H26.45C27.3231 8.25 27.8576 8.25156 28.2575 8.28423C28.4438 8.29945 28.5565 8.31857 28.625 8.33469C28.6576 8.34236 28.6776 8.34879 28.6884 8.35265C28.6988 8.35636 28.7032 8.35858 28.704 8.35899C28.8922 8.45487 29.0451 8.60785 29.141 8.79601C29.1414 8.79681 29.1436 8.80118 29.1473 8.81158C29.1512 8.82241 29.1576 8.84244 29.1653 8.875C29.1814 8.94345 29.2005 9.05617 29.2158 9.24247C29.2411 9.55195 29.2477 9.94204 29.2494 10.5073L18.8416 15.7111C17.874 16.1949 17.6806 16.2639 17.5 16.2639C17.3194 16.2639 17.126 16.1949 16.1584 15.7111L5.75058 10.5073C5.7523 9.94204 5.75894 9.55195 5.78423 9.24247C5.79945 9.05617 5.81857 8.94345 5.83469 8.875C5.84236 8.84244 5.84879 8.82241 5.85265 8.81158C5.85636 8.80118 5.85858 8.79681 5.85899 8.79601C5.95487 8.60785 6.10785 8.45487 6.29601 8.35899C6.29681 8.35858 6.30118 8.35636 6.31158 8.35265C6.32241 8.34879 6.34244 8.34236 6.375 8.33469C6.44345 8.31857 6.55617 8.29945 6.74247 8.28423C7.14239 8.25156 7.67692 8.25 8.55 8.25ZM5.75 12.743V21.45C5.75 22.3231 5.75156 22.8576 5.78423 23.2575C5.79945 23.4438 5.81857 23.5565 5.83469 23.625C5.84236 23.6576 5.84879 23.6776 5.85265 23.6884C5.85636 23.6988 5.85858 23.7032 5.85899 23.704C5.95487 23.8922 6.10785 24.0451 6.29601 24.141C6.29681 24.1414 6.30118 24.1436 6.31158 24.1473C6.32241 24.1512 6.34244 24.1576 6.375 24.1653C6.44345 24.1814 6.55617 24.2005 6.74247 24.2158C7.14239 24.2484 7.67692 24.25 8.55 24.25H26.45C27.3231 24.25 27.8576 24.2484 28.2575 24.2158C28.4438 24.2005 28.5565 24.1814 28.625 24.1653C28.6576 24.1576 28.6776 24.1512 28.6884 24.1473C28.6945 24.1452 28.6986 24.1435 28.701 24.1424C28.7027 24.1416 28.7037 24.1412 28.704 24.141C28.8922 24.0451 29.0451 23.8922 29.141 23.704C29.1414 23.7032 29.1436 23.6988 29.1473 23.6884C29.1512 23.6776 29.1576 23.6576 29.1653 23.625C29.1814 23.5565 29.2005 23.4438 29.2158 23.2575C29.2484 22.8576 29.25 22.3231 29.25 21.45V12.743L19.7361 17.5L19.5862 17.5751C18.8603 17.9398 18.2149 18.2639 17.5 18.2639C16.7851 18.2639 16.1397 17.9398 15.4138 17.5751L15.2639 17.5L5.75 12.743ZM3.75 11.05C3.75 9.36984 3.75 8.52976 4.07698 7.88803C4.3646 7.32354 4.82354 6.8646 5.38803 6.57698C6.02976 6.25 6.86984 6.25 8.55 6.25H26.45C28.1302 6.25 28.9702 6.25 29.612 6.57698C30.1765 6.8646 30.6354 7.32354 30.923 7.88803C31.25 8.52976 31.25 9.36984 31.25 11.05V21.45C31.25 23.1302 31.25 23.9702 30.923 24.612C30.6354 25.1765 30.1765 25.6354 29.612 25.923C28.9702 26.25 28.1302 26.25 26.45 26.25H8.55C6.86984 26.25 6.02976 26.25 5.38803 25.923C4.82354 25.6354 4.3646 25.1765 4.07698 24.612C3.75 23.9702 3.75 23.1302 3.75 21.45V11.05Z" fill="black"/>
</svg>
