<svg width="35" height="35" viewBox="0 0 35 35" fill="none" xmlns="http://www.w3.org/2000/svg">
    <path d="M17.4992 15.4002C16.3916 15.4002 15.3089 15.0718 14.388 14.4564C13.4671 13.8411 12.7493 12.9665 12.3255 11.9432C11.9016 10.92 11.7907 9.79399 12.0068 8.70769C12.2229 7.6214 12.7562 6.62357 13.5394 5.8404C14.3226 5.05723 15.3204 4.52388 16.4067 4.3078C17.493 4.09172 18.619 4.20262 19.6422 4.62647C20.6655 5.05032 21.5401 5.76809 22.1554 6.689C22.7708 7.60992 23.0992 8.69262 23.0992 9.8002C23.0992 11.2854 22.5092 12.7098 21.459 13.76C20.4088 14.8102 18.9844 15.4002 17.4992 15.4002ZM17.4992 5.6002C16.6685 5.6002 15.8565 5.84652 15.1658 6.30803C14.4751 6.76953 13.9368 7.42548 13.6189 8.19293C13.301 8.96038 13.2179 9.80486 13.3799 10.6196C13.542 11.4343 13.942 12.1827 14.5294 12.77C15.1167 13.3574 15.8651 13.7574 16.6798 13.9195C17.4946 14.0816 18.339 13.9984 19.1065 13.6805C19.8739 13.3626 20.5299 12.8243 20.9914 12.1336C21.4529 11.4429 21.6992 10.6309 21.6992 9.8002C21.6992 8.68629 21.2567 7.618 20.4691 6.83035C19.6814 6.0427 18.6131 5.6002 17.4992 5.6002ZM30.7992 30.8002H29.3992V30.1002C29.3992 26.9441 28.1455 23.9173 25.9138 21.6856C23.6821 19.4539 20.6553 18.2002 17.4992 18.2002C14.3431 18.2002 11.3163 19.4539 9.08465 21.6856C6.85297 23.9173 5.59922 26.9441 5.59922 30.1002V30.8002H4.19922V30.1002C4.19922 26.5728 5.60046 23.1899 8.0947 20.6957C10.5889 18.2014 13.9718 16.8002 17.4992 16.8002C21.0266 16.8002 24.4095 18.2014 26.9037 20.6957C29.398 23.1899 30.7992 26.5728 30.7992 30.1002V30.8002Z" fill="black"/>
</svg>
