<svg width="35" height="35" viewBox="0 0 35 35" fill="none" xmlns="http://www.w3.org/2000/svg">
    <path fill-rule="evenodd" clip-rule="evenodd" d="M14.7294 12.0198C14.3388 11.6292 14.3388 10.9961 14.7294 10.6055L19.8264 5.50849C21.3885 3.94639 23.9212 3.94639 25.4833 5.50849L29.4902 9.51542C31.0523 11.0775 31.0523 13.6102 29.4902 15.1723L24.3932 20.2693C24.0026 20.6599 23.3695 20.6599 22.9789 20.2693C22.5884 19.8788 22.5884 19.2457 22.9789 18.8551L28.076 13.7581C28.857 12.977 28.857 11.7107 28.076 10.9296L24.0691 6.9227C23.288 6.14165 22.0217 6.14165 21.2406 6.9227L16.1436 12.0198C15.7531 12.4103 15.1199 12.4103 14.7294 12.0198ZM12.0188 14.7303C11.6283 14.3398 10.9951 14.3398 10.6046 14.7303L5.50751 19.8274C3.94541 21.3895 3.94541 23.9222 5.50751 25.4843L9.51445 29.4912C11.0765 31.0533 13.6092 31.0533 15.1713 29.4912L20.2684 24.3941C20.6589 24.0036 20.6589 23.3704 20.2684 22.9799C19.8778 22.5894 19.2447 22.5894 18.8542 22.9799L13.7571 28.077C12.976 28.858 11.7097 28.858 10.9287 28.077L6.92172 24.07C6.14068 23.289 6.14067 22.0227 6.92172 21.2416L12.0188 16.1446C12.4093 15.754 12.4093 15.1209 12.0188 14.7303ZM12.1514 21.4331C11.7608 21.8236 11.7608 22.4568 12.1514 22.8473C12.5419 23.2379 13.1751 23.2379 13.5656 22.8473L22.8464 13.5666C23.2369 13.176 23.2369 12.5429 22.8464 12.1523C22.4558 11.7618 21.8227 11.7618 21.4321 12.1523L12.1514 21.4331Z" fill="black"/>
</svg>
